<svg width="446" height="339" viewBox="0 0 446 339" fill="none" xmlns="http://www.w3.org/2000/svg">
<path d="M99.0916 49.5623C98.0973 46.1059 96.7005 43.0519 94.9013 40.4004C93.102 37.7015 90.9003 35.4288 88.2962 33.5822C85.7393 31.6882 82.8037 30.2441 79.4893 29.2498C76.2223 28.2555 72.6001 27.7583 68.6229 27.7583C61.1891 27.7583 54.6551 29.6049 49.0206 33.2981C43.4335 36.9913 39.0774 42.3653 35.9524 49.4203C32.8274 56.4278 31.2649 64.9979 31.2649 75.1305C31.2649 85.2631 32.8037 93.8805 35.8814 100.983C38.959 108.085 43.3151 113.507 48.9496 117.247C54.584 120.94 61.2365 122.787 68.9069 122.787C75.8672 122.787 81.8094 121.556 86.7337 119.094C91.7053 116.584 95.4931 113.057 98.0973 108.511C100.749 103.966 102.075 98.5917 102.075 92.389L108.325 93.3123H70.8246V70.1589H131.691V88.4828C131.691 101.267 128.992 112.252 123.595 121.438C118.197 130.576 110.763 137.631 101.294 142.602C91.8236 147.527 80.9808 149.989 68.7649 149.989C55.1285 149.989 43.1494 146.982 32.8274 140.969C22.5054 134.908 14.4562 126.314 8.67969 115.188C2.95052 104.013 0.0859375 90.7555 0.0859375 75.4146C0.0859375 63.6248 1.79048 53.1134 5.19957 43.8805C8.65601 34.6002 13.4855 26.7403 19.6882 20.3009C25.8909 13.8615 33.1115 8.961 41.3501 5.59926C49.5888 2.23751 58.514 0.556641 68.1257 0.556641C76.3643 0.556641 84.0348 1.76403 91.1371 4.17881C98.2393 6.54623 104.537 9.90797 110.029 14.264C115.569 18.6201 120.091 23.8047 123.595 29.818C127.099 35.7839 129.348 42.3653 130.342 49.5623H99.0916ZM251.24 49.5623C250.246 46.1059 248.849 43.0519 247.05 40.4004C245.251 37.7015 243.049 35.4288 240.445 33.5822C237.888 31.6882 234.952 30.2441 231.638 29.2498C228.371 28.2555 224.749 27.7583 220.772 27.7583C213.338 27.7583 206.804 29.6049 201.169 33.2981C195.582 36.9913 191.226 42.3653 188.101 49.4203C184.976 56.4278 183.414 64.9979 183.414 75.1305C183.414 85.2631 184.952 93.8805 188.03 100.983C191.108 108.085 195.464 113.507 201.098 117.247C206.733 120.94 213.385 122.787 221.056 122.787C228.016 122.787 233.958 121.556 238.882 119.094C243.854 116.584 247.642 113.057 250.246 108.511C252.898 103.966 254.223 98.5917 254.223 92.389L260.473 93.3123H222.973V70.1589H283.84V88.4828C283.84 101.267 281.141 112.252 275.743 121.438C270.345 130.576 262.912 137.631 253.442 142.602C243.972 147.527 233.13 149.989 220.914 149.989C207.277 149.989 195.298 146.982 184.976 140.969C174.654 134.908 166.605 126.314 160.828 115.188C155.099 104.013 152.235 90.7555 152.235 75.4146C152.235 63.6248 153.939 53.1134 157.348 43.8805C160.805 34.6002 165.634 26.7403 171.837 20.3009C178.04 13.8615 185.26 8.961 193.499 5.59926C201.738 2.23751 210.663 0.556641 220.274 0.556641C228.513 0.556641 236.184 1.76403 243.286 4.17881C250.388 6.54623 256.685 9.90797 262.178 14.264C267.718 18.6201 272.239 23.8047 275.743 29.818C279.247 35.7839 281.496 42.3653 282.49 49.5623H251.24ZM440.605 75.2725C440.605 91.1343 437.598 104.629 431.585 115.756C425.619 126.883 417.475 135.382 407.153 141.253C396.878 147.077 385.325 149.989 372.494 149.989C359.568 149.989 347.967 147.053 337.693 141.182C327.418 135.311 319.298 126.812 313.332 115.685C307.366 104.558 304.383 91.0869 304.383 75.2725C304.383 59.4108 307.366 45.9165 313.332 34.7896C319.298 23.6627 327.418 15.1873 337.693 9.36347C347.967 3.49225 359.568 0.556641 372.494 0.556641C385.325 0.556641 396.878 3.49225 407.153 9.36347C417.475 15.1873 425.619 23.6627 431.585 34.7896C437.598 45.9165 440.605 59.4108 440.605 75.2725ZM409.426 75.2725C409.426 64.9979 407.887 56.3331 404.809 49.2782C401.779 42.2233 397.494 36.8729 391.954 33.2271C386.414 29.5812 379.928 27.7583 372.494 27.7583C365.06 27.7583 358.573 29.5812 353.034 33.2271C347.494 36.8729 343.185 42.2233 340.108 49.2782C337.077 56.3331 335.562 64.9979 335.562 75.2725C335.562 85.5471 337.077 94.2119 340.108 101.267C343.185 108.322 347.494 113.672 353.034 117.318C358.573 120.964 365.06 122.787 372.494 122.787C379.928 122.787 386.414 120.964 391.954 117.318C397.494 113.672 401.779 108.322 404.809 101.267C407.887 94.2119 409.426 85.5471 409.426 75.2725Z" fill="white"/>
<path d="M9.48153 303V193.909H32.5462V283.984H79.3146V303H9.48153ZM159.654 193.909V303H136.589V193.909H159.654ZM216.475 212.925V193.909H306.07V212.925H272.672V303H249.874V212.925H216.475ZM362.825 303V193.909H436.334V212.925H385.89V238.92H432.552V257.936H385.89V283.984H436.547V303H362.825Z" fill="white"/>
</svg>
